<?xml version="1.0" encoding="UTF-8" standalone="no"?>
<svg
    xmlns:dc="http://purl.org/dc/elements/1.1/"
    xmlns:cc="http://creativecommons.org/ns#"
    xmlns:rdf="http://www.w3.org/1999/02/22-rdf-syntax-ns#"
    xmlns:svg="http://www.w3.org/2000/svg"
    xmlns="http://www.w3.org/2000/svg"
    id="svg65"
    version="1.1"
    height="16"
    width="16">
   <metadata
       id="metadata69">
      <rdf:RDF>
         <cc:Work
             rdf:about="">
            <dc:format>image/svg+xml</dc:format>
            <dc:type
                rdf:resource="http://purl.org/dc/dcmitype/StillImage" />
            <dc:title></dc:title>
         </cc:Work>
      </rdf:RDF>
   </metadata>
   <defs
       id="defs61">
      <style
          type="text/css"
          id="current-color-scheme">
   .ColorScheme-Text { color: #ececec; } .ColorScheme-Highlight { color: #1AD6AB; }
  </style>
   </defs>
   <path
       id="path904"
       d="M 10,1.078125 V 3.1015625 A 5,5 0 0 1 14,8 5,5 0 0 1 10,12.894531 v 2.025391 A 7,7 0 0 0 16,8 7,7 0 0 0 10,1.078125 Z"
       style="opacity:1;fill:#ffffff;fill-opacity:0.50196081;fill-rule:nonzero;stroke:none;stroke-width:0.17500004;stroke-linecap:round;stroke-linejoin:round;stroke-miterlimit:4;stroke-dasharray:none;stroke-dashoffset:0;stroke-opacity:1;paint-order:fill markers stroke" />
   <path
       id="circle880"
       d="M 10,5.1738281 V 10.824219 A 3,3 0 0 0 12,8 3,3 0 0 0 10,5.1738281 Z"
       style="opacity:1;fill:#ffffff;fill-opacity:0.50196081;fill-rule:nonzero;stroke:none;stroke-width:0.17500004;stroke-linecap:round;stroke-linejoin:round;stroke-miterlimit:4;stroke-dasharray:none;stroke-dashoffset:0;stroke-opacity:1;paint-order:fill markers stroke" />
   <path
       id="path891"
       d="M 8,0 3,5 H 0 v 6 h 3 l 5,5 z"
       style="color:#ececec;fill:#ffffff;fill-opacity:0.50196081;stroke:none;stroke-width:1.12297988" />
</svg>
