<?xml version="1.0" encoding="UTF-8" standalone="no"?>
<svg
    xmlns:dc="http://purl.org/dc/elements/1.1/"
    xmlns:cc="http://creativecommons.org/ns#"
    xmlns:rdf="http://www.w3.org/1999/02/22-rdf-syntax-ns#"
    xmlns:svg="http://www.w3.org/2000/svg"
    xmlns="http://www.w3.org/2000/svg"
    width="16"
    height="16"
    version="1.1"
    id="svg65">
   <metadata
       id="metadata69">
      <rdf:RDF>
         <cc:Work
             rdf:about="">
            <dc:format>image/svg+xml</dc:format>
            <dc:type
                rdf:resource="http://purl.org/dc/dcmitype/StillImage" />
            <dc:title></dc:title>
         </cc:Work>
      </rdf:RDF>
   </metadata>
   <defs
       id="defs61">
      <style
          id="current-color-scheme"
          type="text/css">
   .ColorScheme-Text { color: #ececec; } .ColorScheme-Highlight { color: #1AD6AB; }
  </style>
   </defs>
   <path
       id="path63"
       d="M 6 0 L 6 2 L 3 2 L 3 16 L 13 16 L 13 2 L 10 2 L 10 0 L 6 0 z M 8 4 C 8.5348669 4 9.0694345 4.4024003 8.9921875 5.2089844 L 8.4960938 10.394531 C 8.4188437 11.201117 7.5810543 11.201117 7.5039062 10.394531 L 7.0078125 5.2089844 C 6.930665 4.4024003 7.4651331 4 8 4 z M 8 12 C 8.552285 12 9 12.447715 9 13 C 9 13.552285 8.552285 14 8 14 C 7.447715 14 7 13.552285 7 13 C 7 12.447715 7.447715 12 8 12 z "
       style="color:#ececec;fill:#ffff00;fill-opacity:0.50196081;stroke-width:1.17669678" />
   <path
       style="fill:#000000;fill-opacity:0;stroke:none;stroke-width:0.04863343"
       d="M 21.99996,3 V 3 C 21.420959,3 20.962942,3.5829015 21.002367,4.2697526 L 21.285499,9.206394 C 21.311069,9.653128 21.623398,10 22.000007,10 v 0 c 0.376621,0 0.688867,-0.346822 0.714509,-0.793606 L 22.997647,4.2697526 C 23.036947,3.582963 22.578974,3 21.99996,3 Z"
       id="path982" />
   <g
       transform="translate(-528.062,-213.818)"
       id="g986" />
   <g
       transform="translate(-528.062,-213.818)"
       id="g988" />
   <g
       transform="translate(-528.062,-213.818)"
       id="g990" />
   <g
       transform="translate(-528.062,-213.818)"
       id="g992" />
   <g
       transform="translate(-528.062,-213.818)"
       id="g994" />
   <g
       transform="translate(-528.062,-213.818)"
       id="g996" />
   <g
       transform="translate(-528.062,-213.818)"
       id="g998" />
   <g
       transform="translate(-528.062,-213.818)"
       id="g1000" />
   <g
       transform="translate(-528.062,-213.818)"
       id="g1002" />
   <g
       transform="translate(-528.062,-213.818)"
       id="g1004" />
   <g
       transform="translate(-528.062,-213.818)"
       id="g1006" />
   <g
       transform="translate(-528.062,-213.818)"
       id="g1008" />
   <g
       transform="translate(-528.062,-213.818)"
       id="g1010" />
   <g
       transform="translate(-528.062,-213.818)"
       id="g1012" />
   <g
       transform="translate(-528.062,-213.818)"
       id="g1014" />
</svg>
