<?xml version="1.0" encoding="UTF-8" standalone="no"?>
<svg
    xmlns:dc="http://purl.org/dc/elements/1.1/"
    xmlns:cc="http://creativecommons.org/ns#"
    xmlns:rdf="http://www.w3.org/1999/02/22-rdf-syntax-ns#"
    xmlns:svg="http://www.w3.org/2000/svg"
    xmlns="http://www.w3.org/2000/svg"
    id="svg69"
    version="1.1"
    height="16"
    width="16">
   <metadata
       id="metadata73">
      <rdf:RDF>
         <cc:Work
             rdf:about="">
            <dc:format>image/svg+xml</dc:format>
            <dc:type
                rdf:resource="http://purl.org/dc/dcmitype/StillImage" />
            <dc:title></dc:title>
         </cc:Work>
      </rdf:RDF>
   </metadata>
   <defs
       id="defs61">
      <style
          type="text/css"
          id="current-color-scheme">
   .ColorScheme-Text { color: #ececec; } .ColorScheme-Highlight { color: #1AD6AB; }
  </style>
   </defs>
   <path
       class="ColorScheme-Text"
       d="M 8,0 C 6.3379,0 5,1.3381 5,3 V 8.002 C 5,9.6639 6.3379,11 8,11 9.6621,11 11,9.6638 11,8.002 V 3 C 11,1.3381 9.6621,0 8,0 Z"
       id="path63"
       style="color:#ececec;fill:#ffffff;fill-opacity:0.50196081" />
   <path
       class="ColorScheme-Text"
       d="M 2,7 V 7.9985 C 2,10.965 4,14 7,14 v 2 h 2 v -2 c 3,0 5,-3.0351 5,-6.0015 V 7 H 12 V 7.9985 C 12,10.233 10.233,12 8,12 5.7666,12 4,10.233 4,7.9985 V 7 Z"
       id="path65"
       style="color:#ececec;fill:#ffffff;fill-opacity:1" />
   <path
       id="path885"
       d="m 17.49201,3 a 2,2 0 0 1 2,2 2,2 0 0 1 -2,2 2,2 0 0 1 -2,-2 2,2 0 0 1 2,-2 z"
       style="opacity:1;fill:#ffffff;fill-opacity:0.07725321;fill-rule:nonzero;stroke:none;stroke-width:0.1;stroke-linecap:round;stroke-linejoin:round;stroke-miterlimit:4;stroke-dasharray:none;stroke-dashoffset:0;stroke-opacity:1;paint-order:fill markers stroke" />
   <path
       class="ColorScheme-Text"
       d="M 8,1 C 6.8919333,1 6,2.0948091 6,3.4545455 V 7.5470909 C 6,8.9068273 6.8919333,10 8,10 9.1080667,10 10,8.9067455 10,7.5470909 V 3.4545455 C 10,2.0948091 9.1080667,1 8,1 Z"
       id="path63-5"
       style="color:#ececec;fill:#ffffff;fill-opacity:1;stroke-width:0.73854899" />
</svg>
