<?xml version="1.0" encoding="UTF-8" standalone="no"?>
<svg
    xmlns:dc="http://purl.org/dc/elements/1.1/"
    xmlns:cc="http://creativecommons.org/ns#"
    xmlns:rdf="http://www.w3.org/1999/02/22-rdf-syntax-ns#"
    xmlns:svg="http://www.w3.org/2000/svg"
    xmlns="http://www.w3.org/2000/svg"
    xmlns:sodipodi="http://sodipodi.sourceforge.net/DTD/sodipodi-0.dtd"
    xmlns:inkscape="http://www.inkscape.org/namespaces/inkscape"
    id="svg69"
    version="1.1"
    height="16"
    width="16"
    sodipodi:docname="microphone-sensitivity-high-symbolic.svg"
    inkscape:version="0.92.3 (2405546, 2018-03-11)">
   <sodipodi:namedview
       pagecolor="#000000"
       bordercolor="#666666"
       borderopacity="1"
       objecttolerance="10"
       gridtolerance="10"
       guidetolerance="10"
       inkscape:pageopacity="0"
       inkscape:pageshadow="2"
       inkscape:window-width="1366"
       inkscape:window-height="707"
       id="namedview9"
       showgrid="true"
       inkscape:zoom="20.85965"
       inkscape:cx="6.8758995"
       inkscape:cy="7.4855969"
       inkscape:window-x="0"
       inkscape:window-y="25"
       inkscape:window-maximized="1"
       inkscape:current-layer="svg69">
      <inkscape:grid
          type="xygrid"
          id="grid819"
          empspacing="4" />
   </sodipodi:namedview>
   <metadata
       id="metadata73">
      <rdf:RDF>
         <cc:Work
             rdf:about="">
            <dc:format>image/svg+xml</dc:format>
            <dc:type
                rdf:resource="http://purl.org/dc/dcmitype/StillImage" />
            <dc:title></dc:title>
         </cc:Work>
      </rdf:RDF>
   </metadata>
   <defs
       id="defs61">
      <style
          type="text/css"
          id="current-color-scheme">
   .ColorScheme-Text { color: #ececec; } .ColorScheme-Highlight { color: #1AD6AB; }
  </style>
   </defs>
   <path
       class="ColorScheme-Text"
       d="M 8,0 C 6.3379,0 5,1.3381 5,3 V 8.002 C 5,9.6639 6.3379,11 8,11 9.6621,11 11,9.6638 11,8.002 V 3 C 11,1.3381 9.6621,0 8,0 Z"
       id="path63"
       style="color:#ececec;fill:#ffffff;fill-opacity:1" />
   <path
       class="ColorScheme-Text"
       d="M 2,7 V 7.9985 C 2,10.965 4,14 7,14 v 2 h 2 v -2 c 3,0 5,-3.0351 5,-6.0015 V 7 H 12 V 7.9985 C 12,10.233 10.233,12 8,12 5.7666,12 4,10.233 4,7.9985 V 7 Z"
       id="path65"
       style="color:#ececec;fill:#ffffff;fill-opacity:1" />
</svg>
