<?xml version="1.0" encoding="UTF-8" standalone="no"?>
<svg
    xmlns:dc="http://purl.org/dc/elements/1.1/"
    xmlns:cc="http://creativecommons.org/ns#"
    xmlns:rdf="http://www.w3.org/1999/02/22-rdf-syntax-ns#"
    xmlns:svg="http://www.w3.org/2000/svg"
    xmlns="http://www.w3.org/2000/svg"
    xmlns:xlink="http://www.w3.org/1999/xlink"
    xmlns:sodipodi="http://sodipodi.sourceforge.net/DTD/sodipodi-0.dtd"
    xmlns:inkscape="http://www.inkscape.org/namespaces/inkscape"
    version="1.0"
    id="svg2"
    height="16"
    width="16"
    sodipodi:docname="user-busy-symbolic.svg"
    inkscape:version="0.92.3 (2405546, 2018-03-11)">
   <sodipodi:namedview
       pagecolor="#000000"
       bordercolor="#666666"
       borderopacity="1"
       objecttolerance="10"
       gridtolerance="10"
       guidetolerance="10"
       inkscape:pageopacity="0"
       inkscape:pageshadow="2"
       inkscape:window-width="1366"
       inkscape:window-height="707"
       id="namedview34"
       showgrid="true"
       inkscape:zoom="20.85965"
       inkscape:cx="-8.0205777"
       inkscape:cy="11.772088"
       inkscape:window-x="0"
       inkscape:window-y="25"
       inkscape:window-maximized="1"
       inkscape:current-layer="svg2">
      <inkscape:grid
          type="xygrid"
          id="grid841"
          empspacing="4"
          empcolor="#ec3fff"
          empopacity="0.25098039" />
   </sodipodi:namedview>
   <defs
       id="defs4">
      <linearGradient
          id="StandardGradient"
          gradientTransform="scale(1.1389662,0.8779892)"
          x1="6.4706173"
          y1="7.6491265"
          x2="6.4706173"
          y2="18.248226"
          gradientUnits="userSpaceOnUse">
         <stop
             style="stop-color:#000000;stop-opacity:0.86274511;"
             offset="0"
             id="stop3283" />
         <stop
             style="stop-color:#000000;stop-opacity:0.47058824;"
             offset="1"
             id="stop3285" />
      </linearGradient>
      <linearGradient
          xlink:href="#StandardGradient"
          id="linearGradient3629"
          gradientUnits="userSpaceOnUse"
          gradientTransform="matrix(1.1389662,0,0,0.8779892,-20,0)"
          x1="6.4706173"
          y1="7.6491265"
          x2="6.4706173"
          y2="18.248226" />
      <clipPath
          clipPathUnits="userSpaceOnUse"
          id="clipPath3636">
         <path
             style="fill:#ff00ff;fill-opacity:1;stroke:none;display:inline"
             d="m -19.535739,2.999982 0,16 16.0000003,0 0,-16 -16.0000003,0 z m 12.0625003,3.71875 1.9375,1.9375 -7.3437503,7.3125 -4.65625,-4.625 1.9375,-1.9375 2.71875,2.6875 5.4062503,-5.375 z"
             id="path3638" />
      </clipPath>
      <linearGradient
          xlink:href="#linearGradient4081"
          id="linearGradient3675"
          x1="13"
          y1="18"
          x2="13"
          y2="3.9643312"
          gradientUnits="userSpaceOnUse" />
      <linearGradient
          id="linearGradient4081">
         <stop
             style="stop-color:#aaaaaa;stop-opacity:1;"
             offset="0"
             id="stop4083" />
         <stop
             style="stop-color:#f0f0f0;stop-opacity:1;"
             offset="1"
             id="stop4085" />
      </linearGradient>
      <linearGradient
          gradientTransform="matrix(1.1428571,0,0,1.1428571,-4.1071673,-1.6428751)"
          y2="18"
          x2="9"
          y1="5"
          x1="9"
          gradientUnits="userSpaceOnUse"
          id="linearGradient2912"
          xlink:href="#StandardGradient" />
      <linearGradient
          xlink:href="#StandardGradient"
          id="linearGradient3638"
          gradientUnits="userSpaceOnUse"
          gradientTransform="translate(-2.5357387,0.999982)"
          x1="9"
          y1="5"
          x2="9"
          y2="18" />
      <linearGradient
          xlink:href="#StandardGradient"
          id="linearGradient3640"
          gradientUnits="userSpaceOnUse"
          gradientTransform="translate(-3,-3)"
          x1="9"
          y1="5"
          x2="9"
          y2="18" />
      <linearGradient
          xlink:href="#StandardGradient"
          id="linearGradient3645"
          gradientUnits="userSpaceOnUse"
          gradientTransform="translate(-3,-2)"
          x1="9"
          y1="5"
          x2="9"
          y2="18" />
      <linearGradient
          xlink:href="#StandardGradient"
          id="linearGradient3649"
          gradientUnits="userSpaceOnUse"
          gradientTransform="translate(-2.5357387,-1.8e-5)"
          x1="9"
          y1="5"
          x2="9"
          y2="18" />
      <linearGradient
          xlink:href="#StandardGradient"
          id="linearGradient3654"
          gradientUnits="userSpaceOnUse"
          gradientTransform="translate(-22.535739,-1.8e-5)"
          x1="9"
          y1="5"
          x2="9"
          y2="18" />
      <clipPath
          clipPathUnits="userSpaceOnUse"
          id="clipPath3661">
         <path
             style="fill:#ff00ff;fill-opacity:1;stroke:none;display:inline"
             d="m -19.535739,2.999982 0,16 16.0000003,0 0,-16 -16.0000003,0 z m 8,2 c 3.8659933,0 7.0000003,2.4101491 7.0000003,6 0,1.485565 -0.534328,2.342799 -1.4375,3.4375 l 1.4375,3.5625 -4.03125,-1.625 c -0.903657,0.395035 -1.9037933,0.625 -2.9687503,0.625 -3.865993,0 -7,-2.410149 -7,-6 0,-3.5898509 3.134007,-6 7,-6 z"
             id="path3663" />
      </clipPath>
      <clipPath
          clipPathUnits="userSpaceOnUse"
          id="clipPath3658">
         <path
             style="fill:#ff00ff;fill-opacity:1;stroke:none;display:inline"
             d="m -19.535739,2.999982 0,16 16.0000003,0 0,-16 -16.0000003,0 z m 8,2 c 3.8659933,0 7.0000003,2.4101491 7.0000003,6 0,1.485565 -0.534328,2.342799 -1.4375,3.4375 l 1.4375,3.5625 -4.03125,-1.625 c -0.903657,0.395035 -1.9037933,0.625 -2.9687503,0.625 -3.865993,0 -7,-2.410149 -7,-6 0,-3.5898509 3.134007,-6 7,-6 z m 0,2 c -2.761423,0 -5,1.7908611 -5,4 0,2.209139 2.238577,4 5,4 2.7614243,0 5.0000003,-1.790861 5.0000003,-4 0,-2.2091389 -2.238576,-4 -5.0000003,-4 z"
             id="path3660" />
      </clipPath>
      <clipPath
          clipPathUnits="userSpaceOnUse"
          id="clipPath3636-4">
         <path
             style="fill:#ff00ff;fill-opacity:1;stroke:none;display:inline"
             d="m -19.535739,2.999982 0,16 16.0000003,0 0,-16 -16.0000003,0 z m 12.0625003,3.71875 1.9375,1.9375 -7.3437503,7.3125 -4.65625,-4.625 1.9375,-1.9375 2.71875,2.6875 5.4062503,-5.375 z"
             id="path3638-7" />
      </clipPath>
      <clipPath
          clipPathUnits="userSpaceOnUse"
          id="clipPath3661-0">
         <path
             style="fill:#ff00ff;fill-opacity:1;stroke:none;display:inline"
             d="m -19.535739,2.999982 0,16 16.0000003,0 0,-16 -16.0000003,0 z m 8,2 c 3.8659933,0 7.0000003,2.4101491 7.0000003,6 0,1.485565 -0.534328,2.342799 -1.4375,3.4375 l 1.4375,3.5625 -4.03125,-1.625 c -0.903657,0.395035 -1.9037933,0.625 -2.9687503,0.625 -3.865993,0 -7,-2.410149 -7,-6 0,-3.5898509 3.134007,-6 7,-6 z"
             id="path3663-3" />
      </clipPath>
      <clipPath
          clipPathUnits="userSpaceOnUse"
          id="clipPath3658-6">
         <path
             style="fill:#ff00ff;fill-opacity:1;stroke:none;display:inline"
             d="m -19.535739,2.999982 0,16 16.0000003,0 0,-16 -16.0000003,0 z m 8,2 c 3.8659936,0 7.0000003,2.4101491 7.0000003,6 0,1.485565 -0.534328,2.342799 -1.4375,3.4375 l 1.4375,3.5625 -4.03125,-1.625 c -0.903657,0.395035 -1.9037933,0.625 -2.9687503,0.625 -3.865993,0 -7,-2.410149 -7,-6 0,-3.5898509 3.134007,-6 7,-6 z m -4.09375,5 0,2 8.0937503,0 0,-2 -8.0937503,0 z"
             id="path3660-1" />
      </clipPath>
      <clipPath
          id="clipPath3636-3"
          clipPathUnits="userSpaceOnUse">
         <path
             id="path3638-5"
             d="m -19.535739,2.999982 0,16 16.0000003,0 0,-16 -16.0000003,0 z m 12.0625003,3.71875 1.9375,1.9375 -7.3437503,7.3125 -4.65625,-4.625 1.9375,-1.9375 2.71875,2.6875 5.4062503,-5.375 z"
             style="fill:#ff00ff;fill-opacity:1;stroke:none;display:inline" />
      </clipPath>
      <clipPath
          id="clipPath3661-9"
          clipPathUnits="userSpaceOnUse">
         <path
             id="path3663-1"
             d="m -19.535739,2.999982 0,16 16.0000003,0 0,-16 -16.0000003,0 z m 8,2 c 3.8659933,0 7.0000003,2.4101491 7.0000003,6 0,1.485565 -0.534328,2.342799 -1.4375,3.4375 l 1.4375,3.5625 -4.03125,-1.625 c -0.903657,0.395035 -1.9037933,0.625 -2.9687503,0.625 -3.865993,0 -7,-2.410149 -7,-6 0,-3.5898509 3.134007,-6 7,-6 z"
             style="fill:#ff00ff;fill-opacity:1;stroke:none;display:inline" />
      </clipPath>
      <clipPath
          id="clipPath3658-2"
          clipPathUnits="userSpaceOnUse">
         <path
             id="path3660-7"
             d="m -19.535739,2.999982 0,16 16.0000003,0 0,-16 -16.0000003,0 z m 8,2 c 3.8659933,0 7.0000003,2.4101491 7.0000003,6 0,1.485565 -0.534328,2.342799 -1.4375,3.4375 l 1.4375,3.5625 -4.03125,-1.625 c -0.903657,0.395035 -1.9037933,0.625 -2.9687503,0.625 -3.865993,0 -7,-2.410149 -7,-6 0,-3.5898509 3.134007,-6 7,-6 z m 0,2 c -2.761423,0 -5,1.7908611 -5,4 0,2.209139 2.238577,4 5,4 2.7614243,0 5.0000003,-1.790861 5.0000003,-4 0,-2.2091389 -2.238576,-4 -5.0000003,-4 z"
             style="fill:#ff00ff;fill-opacity:1;stroke:none;display:inline" />
      </clipPath>
      <clipPath
          id="clipPath3636-4-0"
          clipPathUnits="userSpaceOnUse">
         <path
             id="path3638-7-9"
             d="m -19.535739,2.999982 0,16 16.0000003,0 0,-16 -16.0000003,0 z m 12.0625003,3.71875 1.9375,1.9375 -7.3437503,7.3125 -4.65625,-4.625 1.9375,-1.9375 2.71875,2.6875 5.4062503,-5.375 z"
             style="fill:#ff00ff;fill-opacity:1;stroke:none;display:inline" />
      </clipPath>
      <clipPath
          id="clipPath3661-0-3"
          clipPathUnits="userSpaceOnUse">
         <path
             id="path3663-3-6"
             d="m -19.535739,2.999982 0,16 16.0000003,0 0,-16 -16.0000003,0 z m 8,2 c 3.8659933,0 7.0000003,2.4101491 7.0000003,6 0,1.485565 -0.534328,2.342799 -1.4375,3.4375 l 1.4375,3.5625 -4.03125,-1.625 c -0.903657,0.395035 -1.9037933,0.625 -2.9687503,0.625 -3.865993,0 -7,-2.410149 -7,-6 0,-3.5898509 3.134007,-6 7,-6 z"
             style="fill:#ff00ff;fill-opacity:1;stroke:none;display:inline" />
      </clipPath>
      <clipPath
          id="clipPath3658-6-0"
          clipPathUnits="userSpaceOnUse">
         <path
             id="path3660-1-6"
             d="m -19.535739,2.999982 0,16 16.0000003,0 0,-16 -16.0000003,0 z m 8,2 c 3.8659936,0 7.0000003,2.4101491 7.0000003,6 0,1.485565 -0.534328,2.342799 -1.4375,3.4375 l 1.4375,3.5625 -4.03125,-1.625 c -0.903657,0.395035 -1.9037933,0.625 -2.9687503,0.625 -3.865993,0 -7,-2.410149 -7,-6 0,-3.5898509 3.134007,-6 7,-6 z m -4.09375,5 0,2 8.0937503,0 0,-2 -8.0937503,0 z"
             style="fill:#ff00ff;fill-opacity:1;stroke:none;display:inline" />
      </clipPath>
   </defs>
   <metadata
       id="metadata7">
      <rdf:RDF>
         <cc:Work
             rdf:about="">
            <dc:format>image/svg+xml</dc:format>
            <dc:type
                rdf:resource="http://purl.org/dc/dcmitype/StillImage" />
            <dc:title />
         </cc:Work>
      </rdf:RDF>
   </metadata>
   <g
       transform="translate(-0.4642613,-2.999982)"
       style="display:inline;fill:#0200ff;fill-opacity:0.98888886"
       id="layer3">
      <g
          transform="matrix(1.1428571,0,0,1.1538462,-1.2091798,-2.2692285)"
          id="layer3-5"
          style="display:inline;stroke:none;fill:#0200ff;fill-opacity:0.98888886">
         <path
             style="display:inline;fill:#0200ff;fill-opacity:0.98888886;stroke:none"
             d="M 8,2 C 4.1340071,2 1,4.4101491 1,8 c 0,3.589851 3.1340071,6 7,6 1.064957,0 2.065093,-0.229965 2.96875,-0.625 L 15,15 13.5625,11.4375 C 14.465672,10.342799 15,9.485565 15,8 15,4.4101491 11.865993,2 8,2 Z m -4.3750002,4.7666667 8.7500002,0 v 2.5999999 l -8.7500002,0 z"
             transform="translate(0.4642613,2.999982)"
             id="path2892-5"
             inkscape:connector-curvature="0"
             sodipodi:nodetypes="ssscccssccccc" />
      </g>
   </g>
</svg>
