<?xml version="1.0" encoding="UTF-8" standalone="no"?>
<!-- Created with Inkscape (http://www.inkscape.org/) -->

<svg
    xmlns:dc="http://purl.org/dc/elements/1.1/"
    xmlns:cc="http://creativecommons.org/ns#"
    xmlns:rdf="http://www.w3.org/1999/02/22-rdf-syntax-ns#"
    xmlns:svg="http://www.w3.org/2000/svg"
    xmlns="http://www.w3.org/2000/svg"
    xmlns:sodipodi="http://sodipodi.sourceforge.net/DTD/sodipodi-0.dtd"
    xmlns:inkscape="http://www.inkscape.org/namespaces/inkscape"
    width="16"
    height="16"
    id="svg2"
    sodipodi:version="0.32"
    inkscape:version="0.92.3 (2405546, 2018-03-11)"
    version="1.0"
    sodipodi:docname="user-status-pending-symbolic.svg"
    inkscape:output_extension="org.inkscape.output.svg.inkscape">
   <defs
       id="defs4" />
   <sodipodi:namedview
       id="base"
       pagecolor="#000000"
       bordercolor="#9a9a9a"
       borderopacity="1"
       inkscape:pageopacity="0"
       inkscape:pageshadow="2"
       inkscape:zoom="10.076923"
       inkscape:cx="12.640623"
       inkscape:cy="8.5638233"
       inkscape:document-units="px"
       inkscape:current-layer="layer3"
       showgrid="true"
       inkscape:showpageshadow="false"
       showguides="true"
       inkscape:guide-bbox="true"
       inkscape:window-width="1366"
       inkscape:window-height="707"
       inkscape:window-x="0"
       inkscape:window-y="25"
       inkscape:window-maximized="1"
       borderlayer="true"
       inkscape:snap-bbox="true"
       inkscape:snap-bbox-midpoints="true"
       inkscape:snap-bbox-edge-midpoints="true"
       inkscape:bbox-nodes="true"
       inkscape:bbox-paths="true"
       inkscape:snap-intersection-paths="true"
       inkscape:object-paths="true"
       inkscape:snap-smooth-nodes="true">
      <sodipodi:guide
          orientation="1,0"
          position="0,112"
          id="guide2383"
          inkscape:locked="false" />
      <sodipodi:guide
          orientation="0,1"
          position="26.278146,128"
          id="guide2385"
          inkscape:locked="false" />
      <sodipodi:guide
          orientation="1,0"
          position="128,54.082119"
          id="guide2387"
          inkscape:locked="false" />
      <sodipodi:guide
          orientation="0,1"
          position="78.156291,0"
          id="guide2389"
          inkscape:locked="false" />
      <inkscape:grid
          type="xygrid"
          id="grid3672"
          visible="true"
          enabled="true"
          empspacing="4"
          empcolor="#d63fff"
          empopacity="0.25098039" />
   </sodipodi:namedview>
   <metadata
       id="metadata7">
      <rdf:RDF>
         <cc:Work
             rdf:about="">
            <dc:format>image/svg+xml</dc:format>
            <dc:type
                rdf:resource="http://purl.org/dc/dcmitype/StillImage" />
            <dc:title></dc:title>
         </cc:Work>
      </rdf:RDF>
   </metadata>
   <g
       inkscape:groupmode="layer"
       id="layer3"
       inkscape:label="Cross"
       style="display:inline"
       transform="translate(-0.4642613,-2.999982)">
      <path
          style="display:inline;opacity:1;fill:#ffff00;fill-opacity:1;stroke:none;stroke-width:1.14833856"
          d="M 8 0.5 C 3.5817223 0.5 1.1842379e-15 3.2816923 0 7.4238281 C 0 11.565964 3.5817223 14.345703 8 14.345703 C 9.2170939 14.345703 10.359827 14.08081 11.392578 13.625 L 16 15.5 L 14.357422 11.388672 C 15.389619 10.125555 16 9.1379411 16 7.4238281 C 16 3.2816923 12.418278 0.5 8 0.5 z M 8.5 1.75 C 9.3249999 1.75 10.163382 1.9869559 10.84375 2.53125 C 11.524117 3.0755441 12 3.9722222 12 5 C 12 5.75 11.692091 6.4052656 11.318359 6.8828125 C 10.944627 7.360359 10.513672 7.7050781 10.138672 8.0175781 C 9.7636719 8.3300781 9.444627 8.6103595 9.2558594 8.8515625 C 9.0670921 9.0927665 9 9.25 9 9.5 A 1.0001 1.0001 0 1 1 7 9.5 C 6.9999999 8.75 7.3059552 8.0947335 7.6796875 7.6171875 C 8.0534199 7.1396405 8.484375 6.7949219 8.859375 6.4824219 C 9.2343749 6.1699219 9.5534205 5.8896406 9.7421875 5.6484375 C 9.9309605 5.4072344 10 5.25 10 5 C 10 4.5277778 9.850882 4.2994559 9.59375 4.09375 C 9.3366173 3.8880441 8.9249999 3.75 8.5 3.75 C 8.075 3.75 7.6633824 3.8880441 7.40625 4.09375 C 7.1491175 4.2994559 7 4.5277778 7 5 A 1.0001 1.0001 0 1 1 5 5 C 4.9999999 3.9722222 5.4758824 3.0755441 6.15625 2.53125 C 6.8366175 1.9869559 7.675 1.75 8.5 1.75 z M 8 11 A 1 1 0 0 1 9 12 A 1 1 0 0 1 8 13 A 1 1 0 0 1 7 12 A 1 1 0 0 1 8 11 z "
          transform="translate(0.4642613,2.999982)"
          id="path2892" />
   </g>
</svg>
