<?xml version="1.0" encoding="UTF-8" standalone="no"?>
<svg
    xmlns:dc="http://purl.org/dc/elements/1.1/"
    xmlns:cc="http://creativecommons.org/ns#"
    xmlns:rdf="http://www.w3.org/1999/02/22-rdf-syntax-ns#"
    xmlns:svg="http://www.w3.org/2000/svg"
    xmlns="http://www.w3.org/2000/svg"
    xmlns:xlink="http://www.w3.org/1999/xlink"
    xmlns:sodipodi="http://sodipodi.sourceforge.net/DTD/sodipodi-0.dtd"
    xmlns:inkscape="http://www.inkscape.org/namespaces/inkscape"
    version="1.0"
    id="svg2"
    height="16"
    width="16"
    sodipodi:docname="user-idle-symbolic.svg"
    inkscape:version="0.92.3 (2405546, 2018-03-11)">
   <sodipodi:namedview
       pagecolor="#ffffff"
       bordercolor="#666666"
       borderopacity="1"
       objecttolerance="10"
       gridtolerance="10"
       guidetolerance="10"
       inkscape:pageopacity="0"
       inkscape:pageshadow="2"
       inkscape:window-width="847"
       inkscape:window-height="480"
       id="namedview34"
       showgrid="false"
       inkscape:zoom="14.75"
       inkscape:cx="8"
       inkscape:cy="8"
       inkscape:window-x="0"
       inkscape:window-y="25"
       inkscape:window-maximized="0"
       inkscape:current-layer="svg2" />
   <defs
       id="defs4">
      <linearGradient
          id="StandardGradient"
          gradientTransform="scale(1.1389662,0.8779892)"
          x1="6.4706173"
          y1="7.6491265"
          x2="6.4706173"
          y2="18.248226"
          gradientUnits="userSpaceOnUse">
         <stop
             style="stop-color:#000000;stop-opacity:0.86274511;"
             offset="0"
             id="stop3283" />
         <stop
             style="stop-color:#000000;stop-opacity:0.47058824;"
             offset="1"
             id="stop3285" />
      </linearGradient>
      <linearGradient
          xlink:href="#StandardGradient"
          id="linearGradient3629"
          gradientUnits="userSpaceOnUse"
          gradientTransform="matrix(1.1389662,0,0,0.8779892,-20,0)"
          x1="6.4706173"
          y1="7.6491265"
          x2="6.4706173"
          y2="18.248226" />
      <clipPath
          clipPathUnits="userSpaceOnUse"
          id="clipPath3636">
         <path
             style="fill:#ff00ff;fill-opacity:1;stroke:none;display:inline"
             d="m -19.535739,2.999982 0,16 16.0000003,0 0,-16 -16.0000003,0 z m 12.0625003,3.71875 1.9375,1.9375 -7.3437503,7.3125 -4.65625,-4.625 1.9375,-1.9375 2.71875,2.6875 5.4062503,-5.375 z"
             id="path3638" />
      </clipPath>
      <linearGradient
          xlink:href="#linearGradient4081"
          id="linearGradient3675"
          x1="13"
          y1="18"
          x2="13"
          y2="3.9643312"
          gradientUnits="userSpaceOnUse" />
      <linearGradient
          id="linearGradient4081">
         <stop
             style="stop-color:#aaaaaa;stop-opacity:1;"
             offset="0"
             id="stop4083" />
         <stop
             style="stop-color:#f0f0f0;stop-opacity:1;"
             offset="1"
             id="stop4085" />
      </linearGradient>
      <linearGradient
          gradientTransform="matrix(1.1428571,0,0,1.1428571,-4.1071673,-1.6428751)"
          y2="18"
          x2="9"
          y1="5"
          x1="9"
          gradientUnits="userSpaceOnUse"
          id="linearGradient2912"
          xlink:href="#StandardGradient" />
      <linearGradient
          xlink:href="#StandardGradient"
          id="linearGradient3638"
          gradientUnits="userSpaceOnUse"
          gradientTransform="translate(-2.5357387,0.999982)"
          x1="9"
          y1="5"
          x2="9"
          y2="18" />
      <linearGradient
          xlink:href="#StandardGradient"
          id="linearGradient3640"
          gradientUnits="userSpaceOnUse"
          gradientTransform="translate(-3,-3)"
          x1="9"
          y1="5"
          x2="9"
          y2="18" />
      <linearGradient
          xlink:href="#StandardGradient"
          id="linearGradient3645"
          gradientUnits="userSpaceOnUse"
          gradientTransform="translate(-3,-2)"
          x1="9"
          y1="5"
          x2="9"
          y2="18" />
      <linearGradient
          xlink:href="#StandardGradient"
          id="linearGradient3649"
          gradientUnits="userSpaceOnUse"
          gradientTransform="translate(-2.5357387,-1.8e-5)"
          x1="9"
          y1="5"
          x2="9"
          y2="18" />
      <linearGradient
          xlink:href="#StandardGradient"
          id="linearGradient3654"
          gradientUnits="userSpaceOnUse"
          gradientTransform="translate(-22.535739,-1.8e-5)"
          x1="9"
          y1="5"
          x2="9"
          y2="18" />
      <clipPath
          clipPathUnits="userSpaceOnUse"
          id="clipPath3661">
         <path
             style="fill:#ff00ff;fill-opacity:1;stroke:none;display:inline"
             d="m -19.535739,2.999982 0,16 16.0000003,0 0,-16 -16.0000003,0 z m 8,2 c 3.8659933,0 7.0000003,2.4101491 7.0000003,6 0,1.485565 -0.534328,2.342799 -1.4375,3.4375 l 1.4375,3.5625 -4.03125,-1.625 c -0.903657,0.395035 -1.9037933,0.625 -2.9687503,0.625 -3.865993,0 -7,-2.410149 -7,-6 0,-3.5898509 3.134007,-6 7,-6 z"
             id="path3663" />
      </clipPath>
      <clipPath
          clipPathUnits="userSpaceOnUse"
          id="clipPath3658">
         <path
             style="fill:#ff00ff;fill-opacity:1;stroke:none;display:inline"
             d="m -19.535739,2.999982 0,16 16.0000003,0 0,-16 -16.0000003,0 z m 8,2 c 3.8659933,0 7.0000003,2.4101491 7.0000003,6 0,1.485565 -0.534328,2.342799 -1.4375,3.4375 l 1.4375,3.5625 -4.03125,-1.625 c -0.903657,0.395035 -1.9037933,0.625 -2.9687503,0.625 -3.865993,0 -7,-2.410149 -7,-6 0,-3.5898509 3.134007,-6 7,-6 z m 0,2 c -2.761423,0 -5,1.7908611 -5,4 0,2.209139 2.238577,4 5,4 2.7614243,0 5.0000003,-1.790861 5.0000003,-4 0,-2.2091389 -2.238576,-4 -5.0000003,-4 z"
             id="path3660" />
      </clipPath>
      <clipPath
          clipPathUnits="userSpaceOnUse"
          id="clipPath3636-4">
         <path
             style="fill:#ff00ff;fill-opacity:1;stroke:none;display:inline"
             d="m -19.535739,2.999982 0,16 16.0000003,0 0,-16 -16.0000003,0 z m 12.0625003,3.71875 1.9375,1.9375 -7.3437503,7.3125 -4.65625,-4.625 1.9375,-1.9375 2.71875,2.6875 5.4062503,-5.375 z"
             id="path3638-7" />
      </clipPath>
      <clipPath
          clipPathUnits="userSpaceOnUse"
          id="clipPath3661-0">
         <path
             style="fill:#ff00ff;fill-opacity:1;stroke:none;display:inline"
             d="m -19.535739,2.999982 0,16 16.0000003,0 0,-16 -16.0000003,0 z m 8,2 c 3.8659933,0 7.0000003,2.4101491 7.0000003,6 0,1.485565 -0.534328,2.342799 -1.4375,3.4375 l 1.4375,3.5625 -4.03125,-1.625 c -0.903657,0.395035 -1.9037933,0.625 -2.9687503,0.625 -3.865993,0 -7,-2.410149 -7,-6 0,-3.5898509 3.134007,-6 7,-6 z"
             id="path3663-3" />
      </clipPath>
      <clipPath
          clipPathUnits="userSpaceOnUse"
          id="clipPath3658-6">
         <path
             style="fill:#ff00ff;fill-opacity:1;stroke:none;display:inline"
             d="m -19.535739,2.999982 0,16 16.0000003,0 0,-16 -16.0000003,0 z m 8,2 c 3.8659936,0 7.0000003,2.4101491 7.0000003,6 0,1.485565 -0.534328,2.342799 -1.4375,3.4375 l 1.4375,3.5625 -4.03125,-1.625 c -0.903657,0.395035 -1.9037933,0.625 -2.9687503,0.625 -3.865993,0 -7,-2.410149 -7,-6 0,-3.5898509 3.134007,-6 7,-6 z m -4.09375,5 0,2 8.0937503,0 0,-2 -8.0937503,0 z"
             id="path3660-1" />
      </clipPath>
   </defs>
   <metadata
       id="metadata7">
      <rdf:RDF>
         <cc:Work
             rdf:about="">
            <dc:format>image/svg+xml</dc:format>
            <dc:type
                rdf:resource="http://purl.org/dc/dcmitype/StillImage" />
            <dc:title />
         </cc:Work>
      </rdf:RDF>
   </metadata>
   <g
       transform="translate(-0.4642613,-2.999982)"
       style="display:inline;fill:#0000ff;fill-opacity:1"
       id="layer3">
      <g
          transform="matrix(1.1428571,0,0,1.1538462,-1.2091801,-2.2692285)"
          id="layer3-1"
          style="opacity:1;fill:#0000ff;fill-opacity:1;fill-rule:evenodd;stroke:none;stroke-opacity:1;shape-rendering:crispEdges" />
      <path
          id="path1817"
          transform="translate(0.4642613,2.999982)"
          d="M 8 0.5 C 3.5817223 0.5 -1.1842379e-15 3.2816925 0 7.4238281 C 0 11.565964 3.5817223 14.345703 8 14.345703 C 9.2170935 14.345703 10.359827 14.08081 11.392578 13.625 L 16 15.5 L 14.357422 11.388672 C 15.389619 10.125556 16 9.1379421 16 7.4238281 C 16 3.2816925 12.418278 0.5 8 0.5 z M 3.75 5.9238281 A 1.5 1.5 0 0 1 5.25 7.4238281 A 1.5 1.5 0 0 1 3.75 8.9238281 A 1.5 1.5 0 0 1 2.25 7.4238281 A 1.5 1.5 0 0 1 3.75 5.9238281 z M 8 5.9238281 A 1.5 1.5 0 0 1 9.5 7.4238281 A 1.5 1.5 0 0 1 8 8.9238281 A 1.5 1.5 0 0 1 6.5 7.4238281 A 1.5 1.5 0 0 1 8 5.9238281 z M 12.25 5.9238281 A 1.5 1.5 0 0 1 13.75 7.4238281 A 1.5 1.5 0 0 1 12.25 8.9238281 A 1.5 1.5 0 0 1 10.75 7.4238281 A 1.5 1.5 0 0 1 12.25 5.9238281 z "
          style="display:inline;opacity:1;fill:#0000ff;fill-opacity:1;stroke:none;stroke-width:1.14833856" />
   </g>
</svg>
