<?xml version="1.0" encoding="UTF-8" standalone="no"?>
<svg
    xmlns:dc="http://purl.org/dc/elements/1.1/"
    xmlns:cc="http://creativecommons.org/ns#"
    xmlns:rdf="http://www.w3.org/1999/02/22-rdf-syntax-ns#"
    xmlns:svg="http://www.w3.org/2000/svg"
    xmlns="http://www.w3.org/2000/svg"
    height="16"
    width="16"
    xml:space="preserve"
    viewBox="0 0 16 16"
    y="0px"
    x="0px"
    id="Layer_1"
    version="1.1"><metadata
    id="metadata55"><rdf:RDF><cc:Work
          rdf:about=""><dc:format>image/svg+xml</dc:format><dc:type
             rdf:resource="http://purl.org/dc/dcmitype/StillImage" /><dc:title></dc:title></cc:Work></rdf:RDF></metadata><defs
    id="defs53" />
<g
    style="fill:#fffffb;fill-opacity:1;stroke:none;stroke-opacity:1"
    transform="matrix(0.03162755,0,0,0.03104067,-0.19330759,1.3232737)"
    id="g6">
	<g
    style="fill:#fffffb;fill-opacity:1;stroke:none;stroke-opacity:1"
    id="g4">
		<path
    style="fill:#fffffb;fill-opacity:1;stroke:none;stroke-opacity:1"
    id="path2"
    d="m 287.64,94.921 c -31.721,0 -57.528,25.807 -57.528,57.528 h 34.517 c 0,-12.688 10.323,-23.011 23.011,-23.011 12.688,0 23.011,10.323 23.011,23.011 0,12.688 -10.323,23.011 -23.011,23.011 L 6.112,181.932 v 34.517 l 281.528,-6.472 c 31.71262,-0.72904 57.528,-25.807 57.528,-57.528 10e-4,-31.721 -25.807,-57.528 -57.528,-57.528 z" />
	</g>
</g>
<g
    style="fill:#fffffb;fill-opacity:1;stroke:none;stroke-opacity:1"
    transform="matrix(0.03162755,0,0,0.03104067,-0.19330759,1.3232737)"
    id="g12">
	<g
    style="fill:#fffffb;fill-opacity:1;stroke:none;stroke-opacity:1"
    id="g10">
		<path
    style="fill:#fffffb;fill-opacity:1;stroke:none;stroke-opacity:1"
    id="path8"
    d="m 431.461,106.427 c -34.893,0 -63.281,28.388 -63.281,63.281 0,25.377 20.646,46.022 46.022,46.022 25.377,0 46.022,-20.646 46.022,-46.022 h -34.517 c 0,6.344 -5.161,11.506 -11.506,11.506 -6.344,0 -11.506,-5.161 -11.506,-11.506 0,-15.861 12.904,-28.764 28.764,-28.764 25.377,0 46.022,20.646 46.022,46.022 0,25.377 -20.646,46.022 -46.022,46.022 L 6.112,236.113 v 34.517 l 425.349,-3.125 C 475.8688,267.17874 512,231.375 512,186.966 c 0,-44.409 -36.13,-80.539 -80.539,-80.539 z" />
	</g>
</g>
<g
    style="fill:#fffffb;fill-opacity:1;stroke:none;stroke-opacity:1"
    transform="matrix(0.03162755,0,0,0.03104067,-0.19330759,1.3232737)"
    id="g18">
	<g
    style="fill:#fffffb;fill-opacity:1;stroke:none;stroke-opacity:1"
    id="g16">
		<path
    style="fill:#fffffb;fill-opacity:1;stroke:none;stroke-opacity:1"
    id="path14"
    d="M 345.169,290.517 H 6.112 v 34.517 h 339.056 c 15.861,0 28.764,12.904 28.764,28.764 0,15.861 -12.904,28.764 -28.764,28.764 -15.86,0 -28.764,-12.904 -28.764,-28.764 h -34.517 c 0,34.893 28.388,63.281 63.281,63.281 34.893,0 63.281,-28.388 63.281,-63.281 0,-34.893 -28.387,-63.281 -63.28,-63.281 z" />
	</g>
</g>
<g
    style="stroke:none;stroke-opacity:1;fill:#fffffb;fill-opacity:1"
    transform="matrix(0.03125,0,0,0.03125,0.01125,0.03371875)"
    id="g20">
</g>
<g
    style="stroke:none;stroke-opacity:1;fill:#fffffb;fill-opacity:1"
    transform="matrix(0.03125,0,0,0.03125,0.01125,0.03371875)"
    id="g22">
</g>
<g
    style="stroke:none;stroke-opacity:1;fill:#fffffb;fill-opacity:1"
    transform="matrix(0.03125,0,0,0.03125,0.01125,0.03371875)"
    id="g24">
</g>
<g
    style="stroke:none;stroke-opacity:1;fill:#fffffb;fill-opacity:1"
    transform="matrix(0.03125,0,0,0.03125,0.01125,0.03371875)"
    id="g26">
</g>
<g
    style="stroke:none;stroke-opacity:1;fill:#fffffb;fill-opacity:1"
    transform="matrix(0.03125,0,0,0.03125,0.01125,0.03371875)"
    id="g28">
</g>
<g
    style="stroke:none;stroke-opacity:1;fill:#fffffb;fill-opacity:1"
    transform="matrix(0.03125,0,0,0.03125,0.01125,0.03371875)"
    id="g30">
</g>
<g
    style="stroke:none;stroke-opacity:1;fill:#fffffb;fill-opacity:1"
    transform="matrix(0.03125,0,0,0.03125,0.01125,0.03371875)"
    id="g32">
</g>
<g
    style="stroke:none;stroke-opacity:1;fill:#fffffb;fill-opacity:1"
    transform="matrix(0.03125,0,0,0.03125,0.01125,0.03371875)"
    id="g34">
</g>
<g
    style="stroke:none;stroke-opacity:1;fill:#fffffb;fill-opacity:1"
    transform="matrix(0.03125,0,0,0.03125,0.01125,0.03371875)"
    id="g36">
</g>
<g
    style="stroke:none;stroke-opacity:1;fill:#fffffb;fill-opacity:1"
    transform="matrix(0.03125,0,0,0.03125,0.01125,0.03371875)"
    id="g38">
</g>
<g
    style="stroke:none;stroke-opacity:1;fill:#fffffb;fill-opacity:1"
    transform="matrix(0.03125,0,0,0.03125,0.01125,0.03371875)"
    id="g40">
</g>
<g
    style="stroke:none;stroke-opacity:1;fill:#fffffb;fill-opacity:1"
    transform="matrix(0.03125,0,0,0.03125,0.01125,0.03371875)"
    id="g42">
</g>
<g
    style="stroke:none;stroke-opacity:1;fill:#fffffb;fill-opacity:1"
    transform="matrix(0.03125,0,0,0.03125,0.01125,0.03371875)"
    id="g44">
</g>
<g
    style="stroke:none;stroke-opacity:1;fill:#fffffb;fill-opacity:1"
    transform="matrix(0.03125,0,0,0.03125,0.01125,0.03371875)"
    id="g46">
</g>
<g
    style="stroke:none;stroke-opacity:1;fill:#fffffb;fill-opacity:1"
    transform="matrix(0.03125,0,0,0.03125,0.01125,0.03371875)"
    id="g48">
</g>
</svg>