<?xml version="1.0" encoding="UTF-8" standalone="no"?>
<svg
    xmlns:dc="http://purl.org/dc/elements/1.1/"
    xmlns:cc="http://creativecommons.org/ns#"
    xmlns:rdf="http://www.w3.org/1999/02/22-rdf-syntax-ns#"
    xmlns:svg="http://www.w3.org/2000/svg"
    xmlns="http://www.w3.org/2000/svg"
    xmlns:sodipodi="http://sodipodi.sourceforge.net/DTD/sodipodi-0.dtd"
    xmlns:inkscape="http://www.inkscape.org/namespaces/inkscape"
    version="1.0"
    id="svg2"
    height="16"
    width="16"
    sodipodi:docname="weather-showers-symbolic.svg"
    inkscape:version="0.92.3 (2405546, 2018-03-11)">
   <sodipodi:namedview
       pagecolor="#000000"
       bordercolor="#666666"
       borderopacity="1"
       objecttolerance="10"
       gridtolerance="10"
       guidetolerance="10"
       inkscape:pageopacity="0"
       inkscape:pageshadow="2"
       inkscape:window-width="1366"
       inkscape:window-height="707"
       id="namedview12"
       showgrid="false"
       inkscape:zoom="14.75"
       inkscape:cx="8"
       inkscape:cy="8"
       inkscape:window-x="0"
       inkscape:window-y="25"
       inkscape:window-maximized="1"
       inkscape:current-layer="svg2" />
   <defs
       id="defs4" />
   <metadata
       id="metadata7">
      <rdf:RDF>
         <cc:Work
             rdf:about="">
            <dc:format>image/svg+xml</dc:format>
            <dc:type
                rdf:resource="http://purl.org/dc/dcmitype/StillImage" />
            <dc:title></dc:title>
         </cc:Work>
      </rdf:RDF>
   </metadata>
   <path
       inkscape:connector-curvature="0"
       style="color:#000000;display:inline;overflow:visible;visibility:visible;fill:#ffffff;fill-opacity:1;fill-rule:nonzero;stroke:none;stroke-width:1.99821782;marker:none;enable-background:accumulate"
       d="M 7.5,1.3833708e-7 C 5.164201,1.3833708e-7 3.253781,1.7819732 3.03125,4.0552635 1.877066,4.2762461 1,5.2718484 1,6.4884215 1,7.4882197 1.5928446,8.3439416 2.4433594,8.742212 L 2.5234375,8.2606495 A 1.50015,1.4974777 0 0 1 3.9316406,6.9894804 1.50015,1.4974777 0 0 1 5.453125,8.0949296 1.50015,1.4974777 0 0 1 5.9316406,7.9876991 1.50015,1.4974777 0 0 1 6.5605469,8.0949296 1.50015,1.4974777 0 0 1 7.9316406,6.9894804 1.50015,1.4974777 0 0 1 9.453125,8.0949296 1.50015,1.4974777 0 0 1 9.9316406,7.9876991 1.50015,1.4974777 0 0 1 10.560547,8.0949296 1.50015,1.4974777 0 0 1 11.931641,6.9894804 1.50015,1.4974777 0 0 1 13.5,8.3522829 C 14.405159,7.7207273 15,6.6762311 15,5.4902028 15,3.5606491 13.432997,1.9964375 11.5,1.9964375 c -0.08432,0 -0.167173,0.025345 -0.25,0.031194 C 10.446562,0.80125928 9.077518,1.3833708e-7 7.5,1.3833708e-7 Z"
       id="path3901" />
   <path
       style="color:#000000;font-style:normal;font-variant:normal;font-weight:normal;font-stretch:normal;font-size:medium;line-height:normal;font-family:sans-serif;font-variant-ligatures:normal;font-variant-position:normal;font-variant-caps:normal;font-variant-numeric:normal;font-variant-alternates:normal;font-feature-settings:normal;text-indent:0;text-align:start;text-decoration:none;text-decoration-line:none;text-decoration-style:solid;text-decoration-color:#000000;letter-spacing:normal;word-spacing:normal;text-transform:none;writing-mode:lr-tb;direction:ltr;text-orientation:mixed;dominant-baseline:auto;baseline-shift:baseline;text-anchor:start;white-space:normal;shape-padding:0;clip-rule:nonzero;display:inline;overflow:visible;visibility:visible;opacity:1;isolation:auto;mix-blend-mode:normal;color-interpolation:sRGB;color-interpolation-filters:linearRGB;solid-color:#000000;solid-opacity:1;vector-effect:none;fill:#ffffff;fill-opacity:1;fill-rule:evenodd;stroke:none;stroke-width:1;stroke-linecap:round;stroke-linejoin:miter;stroke-miterlimit:4;stroke-dasharray:none;stroke-dashoffset:0;stroke-opacity:1;color-rendering:auto;image-rendering:auto;shape-rendering:auto;text-rendering:auto;enable-background:accumulate"
       d="M 3.9804688,8 A 0.50005,0.50005 0 0 0 3.5097656,8.4238281 l -1,5.9902339 a 0.50005,0.50005 0 1 0 0.9863282,0.164063 l 1,-5.9902344 A 0.50005,0.50005 0 0 0 3.9804688,8 Z"
       id="path1256-56"
       inkscape:connector-curvature="0" />
   <path
       style="color:#000000;font-style:normal;font-variant:normal;font-weight:normal;font-stretch:normal;font-size:medium;line-height:normal;font-family:sans-serif;font-variant-ligatures:normal;font-variant-position:normal;font-variant-caps:normal;font-variant-numeric:normal;font-variant-alternates:normal;font-feature-settings:normal;text-indent:0;text-align:start;text-decoration:none;text-decoration-line:none;text-decoration-style:solid;text-decoration-color:#000000;letter-spacing:normal;word-spacing:normal;text-transform:none;writing-mode:lr-tb;direction:ltr;text-orientation:mixed;dominant-baseline:auto;baseline-shift:baseline;text-anchor:start;white-space:normal;shape-padding:0;clip-rule:nonzero;display:inline;overflow:visible;visibility:visible;opacity:1;isolation:auto;mix-blend-mode:normal;color-interpolation:sRGB;color-interpolation-filters:linearRGB;solid-color:#000000;solid-opacity:1;vector-effect:none;fill:#ffffff;fill-opacity:1;fill-rule:evenodd;stroke:none;stroke-width:1;stroke-linecap:round;stroke-linejoin:miter;stroke-miterlimit:4;stroke-dasharray:none;stroke-dashoffset:0;stroke-opacity:1;color-rendering:auto;image-rendering:auto;shape-rendering:auto;text-rendering:auto;enable-background:accumulate"
       d="M 5.9804688,8.9980469 A 0.50005,0.50005 0 0 0 5.5097656,9.421875 l -1,5.988281 a 0.50010115,0.50010115 0 1 0 0.9863282,0.166016 l 1,-5.9902345 A 0.50005,0.50005 0 0 0 5.9804688,8.9980469 Z"
       id="path1256-56-06"
       inkscape:connector-curvature="0" />
   <path
       style="color:#000000;font-style:normal;font-variant:normal;font-weight:normal;font-stretch:normal;font-size:medium;line-height:normal;font-family:sans-serif;font-variant-ligatures:normal;font-variant-position:normal;font-variant-caps:normal;font-variant-numeric:normal;font-variant-alternates:normal;font-feature-settings:normal;text-indent:0;text-align:start;text-decoration:none;text-decoration-line:none;text-decoration-style:solid;text-decoration-color:#000000;letter-spacing:normal;word-spacing:normal;text-transform:none;writing-mode:lr-tb;direction:ltr;text-orientation:mixed;dominant-baseline:auto;baseline-shift:baseline;text-anchor:start;white-space:normal;shape-padding:0;clip-rule:nonzero;display:inline;overflow:visible;visibility:visible;opacity:1;isolation:auto;mix-blend-mode:normal;color-interpolation:sRGB;color-interpolation-filters:linearRGB;solid-color:#000000;solid-opacity:1;vector-effect:none;fill:#ffffff;fill-opacity:1;fill-rule:evenodd;stroke:none;stroke-width:1;stroke-linecap:round;stroke-linejoin:miter;stroke-miterlimit:4;stroke-dasharray:none;stroke-dashoffset:0;stroke-opacity:1;color-rendering:auto;image-rendering:auto;shape-rendering:auto;text-rendering:auto;enable-background:accumulate"
       d="M 7.9804688,8 A 0.50005,0.50005 0 0 0 7.5097656,8.4238281 l -1,5.9882809 a 0.50010115,0.50010115 0 1 0 0.9863282,0.166016 l 1,-5.9902344 A 0.50005,0.50005 0 0 0 7.9804688,8 Z"
       id="path1256-56-2"
       inkscape:connector-curvature="0" />
   <path
       style="color:#000000;font-style:normal;font-variant:normal;font-weight:normal;font-stretch:normal;font-size:medium;line-height:normal;font-family:sans-serif;font-variant-ligatures:normal;font-variant-position:normal;font-variant-caps:normal;font-variant-numeric:normal;font-variant-alternates:normal;font-feature-settings:normal;text-indent:0;text-align:start;text-decoration:none;text-decoration-line:none;text-decoration-style:solid;text-decoration-color:#000000;letter-spacing:normal;word-spacing:normal;text-transform:none;writing-mode:lr-tb;direction:ltr;text-orientation:mixed;dominant-baseline:auto;baseline-shift:baseline;text-anchor:start;white-space:normal;shape-padding:0;clip-rule:nonzero;display:inline;overflow:visible;visibility:visible;opacity:1;isolation:auto;mix-blend-mode:normal;color-interpolation:sRGB;color-interpolation-filters:linearRGB;solid-color:#000000;solid-opacity:1;vector-effect:none;fill:#ffffff;fill-opacity:1;fill-rule:evenodd;stroke:none;stroke-width:1;stroke-linecap:round;stroke-linejoin:miter;stroke-miterlimit:4;stroke-dasharray:none;stroke-dashoffset:0;stroke-opacity:1;color-rendering:auto;image-rendering:auto;shape-rendering:auto;text-rendering:auto;enable-background:accumulate"
       d="M 9.9804688,8.9980469 A 0.50005,0.50005 0 0 0 9.5097656,9.421875 l -1,5.988281 a 0.50010115,0.50010115 0 1 0 0.9863282,0.166016 L 10.496094,9.5859375 A 0.50005,0.50005 0 0 0 9.9804688,8.9980469 Z"
       id="path1256-56-6"
       inkscape:connector-curvature="0" />
   <path
       style="color:#000000;font-style:normal;font-variant:normal;font-weight:normal;font-stretch:normal;font-size:medium;line-height:normal;font-family:sans-serif;font-variant-ligatures:normal;font-variant-position:normal;font-variant-caps:normal;font-variant-numeric:normal;font-variant-alternates:normal;font-feature-settings:normal;text-indent:0;text-align:start;text-decoration:none;text-decoration-line:none;text-decoration-style:solid;text-decoration-color:#000000;letter-spacing:normal;word-spacing:normal;text-transform:none;writing-mode:lr-tb;direction:ltr;text-orientation:mixed;dominant-baseline:auto;baseline-shift:baseline;text-anchor:start;white-space:normal;shape-padding:0;clip-rule:nonzero;display:inline;overflow:visible;visibility:visible;opacity:1;isolation:auto;mix-blend-mode:normal;color-interpolation:sRGB;color-interpolation-filters:linearRGB;solid-color:#000000;solid-opacity:1;vector-effect:none;fill:#ffffff;fill-opacity:1;fill-rule:evenodd;stroke:none;stroke-width:1;stroke-linecap:round;stroke-linejoin:miter;stroke-miterlimit:4;stroke-dasharray:none;stroke-dashoffset:0;stroke-opacity:1;color-rendering:auto;image-rendering:auto;shape-rendering:auto;text-rendering:auto;enable-background:accumulate"
       d="m 11.980469,8 a 0.50005,0.50005 0 0 0 -0.470703,0.4238281 l -1,5.9882809 a 0.50010105,0.50010105 0 1 0 0.986328,0.166016 l 1,-5.9902344 A 0.50005,0.50005 0 0 0 11.980469,8 Z"
       id="path1256-56-1"
       inkscape:connector-curvature="0" />
</svg>
